# xmcd
#
# Track frame offsets: 
#        150
#        23313
#        39619
#        54912
#        74417
#        93815
#        113824
#        127396
#        143034
#        161327
#        179014
#
# Disc length: 2671 seconds
#
# Revision: 0
# Processed by: cddbd v1.5.2PL0 Copyright (c) Steve Scherf et al.
# Submitted via: ExactAudioCopy v0.99pb5
#
DISCID=900a6d0b
DTITLE=Hanna Pakarinen - Paperimiehen tyt‰r
DYEAR=2010
DGENRE=Pop
TTITLE0=Prinsessa Armaada
TTITLE1=Sinut kokonaan
TTITLE2=Se yksi ainoa
TTITLE3=Hetken pieni liekki
TTITLE4=Yksin‰inen morsian
TTITLE5=Kolme pient‰ sanaa
TTITLE6=Miehet
TTITLE7=Paperimiehen tyt‰r
TTITLE8=Maailman ihanin mies
TTITLE9=Miten pilviin piirret‰‰n
TTITLE10=Nyt on mun vuoro
EXTD=
EXTT0=
EXTT1=
EXTT2=
EXTT3=
EXTT4=
EXTT5=
EXTT6=
EXTT7=
EXTT8=
EXTT9=
EXTT10=
PLAYORDER=
